<svg width="370" height="215" viewBox="0 0 370 215" fill="none" xmlns="http://www.w3.org/2000/svg">
<rect width="370" height="215" fill="white"/>
<path d="M185.996 104V95.289H177.595V104H172.325V82.238H177.595V90.639H185.996V82.238H191.266V104H185.996ZM202.79 99.939C204.03 99.939 205.177 99.381 205.487 97.893H211.067C210.168 101.954 207.099 104.31 202.759 104.31C197.892 104.31 194.048 100.497 194.048 95.32C194.048 90.174 197.892 86.423 202.852 86.423C207.533 86.423 211.315 89.523 211.315 95.134C211.315 95.661 211.284 96.219 211.191 96.808H199.473C199.876 98.73 201.147 99.939 202.79 99.939ZM202.79 90.794C201.24 90.794 200.031 91.848 199.535 93.584H205.921C205.611 91.755 204.185 90.794 202.79 90.794ZM218.289 95.382C218.289 98.017 219.746 99.784 221.885 99.784C224.055 99.784 225.512 98.017 225.512 95.382C225.512 92.716 224.055 90.949 221.854 90.949C219.715 90.949 218.289 92.716 218.289 95.382ZM225.388 88.81V86.733H230.658V104H225.388V101.768C224.303 103.411 222.691 104.31 220.614 104.31C216.212 104.31 212.864 100.559 212.864 95.413C212.864 90.236 216.212 86.423 220.676 86.423C222.753 86.423 224.334 87.229 225.388 88.81ZM233.284 95.32C233.284 90.174 237.128 86.423 242.088 86.423C246.304 86.423 249.621 88.965 250.303 93.181H244.568C244.134 91.755 243.328 90.949 241.902 90.949C240.104 90.949 238.709 92.716 238.709 95.351C238.709 98.017 240.166 99.784 241.964 99.784C243.235 99.784 244.258 99.009 244.568 97.552H250.303C249.404 102.016 246.335 104.31 241.995 104.31C237.128 104.31 233.284 100.497 233.284 95.32ZM257.131 95.382C257.131 98.017 258.588 99.784 260.727 99.784C262.897 99.784 264.354 98.017 264.354 95.382C264.354 92.716 262.897 90.949 260.696 90.949C258.557 90.949 257.131 92.716 257.131 95.382ZM264.23 88.81V86.733H269.5V104H264.23V101.768C263.145 103.411 261.533 104.31 259.456 104.31C255.054 104.31 251.706 100.559 251.706 95.413C251.706 90.236 255.054 86.423 259.518 86.423C261.595 86.423 263.176 87.229 264.23 88.81ZM275.009 104.31C273.397 104.31 272.126 103.039 272.126 101.427C272.126 99.784 273.397 98.513 275.009 98.513C276.652 98.513 277.923 99.784 277.923 101.427C277.923 103.039 276.652 104.31 275.009 104.31ZM284.287 95.382C284.287 98.017 285.744 99.784 287.883 99.784C290.053 99.784 291.51 98.017 291.51 95.382C291.51 92.716 290.053 90.949 287.852 90.949C285.713 90.949 284.287 92.716 284.287 95.382ZM291.386 88.81V80.347H296.656V104H291.386V101.768C290.301 103.411 288.689 104.31 286.612 104.31C282.21 104.31 278.862 100.559 278.862 95.413C278.862 90.236 282.21 86.423 286.674 86.423C288.751 86.423 290.332 87.229 291.386 88.81ZM300.367 104V80.347H305.637V104H300.367ZM305.761 95.227L310.969 86.733H317.014L311.496 94.917L317.231 104H311.093L305.761 95.227Z" fill="#2C3A42"/>
<path d="M180.384 123V117.73H174.502V123H172.564V111.066H174.502V116.047H180.384V111.066H182.322V123H180.384ZM189 121.521C190.156 121.521 191.125 120.943 191.363 119.753H193.403C192.944 121.81 191.312 123.17 189 123.17C186.314 123.17 184.325 121.147 184.325 118.257C184.325 115.35 186.314 113.361 189.102 113.361C191.686 113.361 193.522 115.214 193.522 117.951C193.522 118.206 193.488 118.461 193.454 118.767H186.314C186.484 120.501 187.555 121.521 189 121.521ZM189 115.01C187.623 115.01 186.62 115.894 186.365 117.458H191.533C191.465 115.945 190.343 115.01 189 115.01ZM196.716 118.257C196.716 120.11 197.702 121.504 199.504 121.504C201.306 121.504 202.343 120.059 202.343 118.257C202.343 116.489 201.306 115.01 199.504 115.027C197.702 115.027 196.716 116.438 196.716 118.257ZM202.326 115.078V113.531H204.264V123H202.326V121.419C201.663 122.541 200.558 123.17 199.181 123.17C196.478 123.17 194.693 121.198 194.693 118.274C194.693 115.35 196.444 113.361 199.198 113.361C200.575 113.361 201.68 113.973 202.326 115.078ZM206.685 123V110.029H208.64V123H206.685ZM211.315 120.569V115.095H210.125V113.531H211.315V111.202H213.253V113.531H215.582V115.095H213.253V120.331C213.253 121.13 213.542 121.47 214.341 121.47C214.749 121.47 215.225 121.368 215.599 121.164V122.796C215.106 123.051 214.545 123.17 213.899 123.17C212.199 123.17 211.315 122.303 211.315 120.569ZM217.178 123V110.029H219.116V114.976C219.694 113.922 220.748 113.361 221.989 113.361C223.927 113.361 225.508 114.738 225.508 117.356V123H223.57V117.662C223.57 115.945 222.703 115.044 221.343 115.044C220 115.044 219.116 115.945 219.116 117.662V123H217.178ZM227.333 118.308C227.333 115.452 229.22 113.361 232.042 113.361C234.252 113.361 235.935 114.687 236.275 116.914H234.184C233.963 115.741 233.13 115.061 231.974 115.061C230.427 115.061 229.356 116.268 229.356 118.308C229.356 120.365 230.427 121.47 231.94 121.47C233.011 121.47 233.98 120.756 234.184 119.617H236.275C235.816 121.725 234.201 123.17 231.906 123.17C229.22 123.17 227.333 121.181 227.333 118.308ZM239.392 118.257C239.392 120.11 240.378 121.504 242.18 121.504C243.982 121.504 245.019 120.059 245.019 118.257C245.019 116.489 243.982 115.01 242.18 115.027C240.378 115.027 239.392 116.438 239.392 118.257ZM245.002 115.078V113.531H246.94V123H245.002V121.419C244.339 122.541 243.234 123.17 241.857 123.17C239.154 123.17 237.369 121.198 237.369 118.274C237.369 115.35 239.12 113.361 241.874 113.361C243.251 113.361 244.356 113.973 245.002 115.078ZM251.299 117.968V123H249.361V113.531H251.299V114.959C251.775 113.973 252.523 113.361 253.509 113.361C253.883 113.361 254.155 113.463 254.274 113.599V115.673C254.07 115.52 253.747 115.384 253.271 115.384C252.166 115.384 251.299 116.047 251.299 117.968ZM259.642 121.521C260.798 121.521 261.767 120.943 262.005 119.753H264.045C263.586 121.81 261.954 123.17 259.642 123.17C256.956 123.17 254.967 121.147 254.967 118.257C254.967 115.35 256.956 113.361 259.744 113.361C262.328 113.361 264.164 115.214 264.164 117.951C264.164 118.206 264.13 118.461 264.096 118.767H256.956C257.126 120.501 258.197 121.521 259.642 121.521ZM259.642 115.01C258.265 115.01 257.262 115.894 257.007 117.458H262.175C262.107 115.945 260.985 115.01 259.642 115.01ZM276.857 118.274C276.857 116.421 275.871 115.027 274.069 115.027C272.284 115.027 271.247 116.472 271.247 118.274C271.247 120.042 272.284 121.521 274.069 121.504C275.871 121.504 276.857 120.093 276.857 118.274ZM271.247 121.453V126.825H269.309V113.531H271.247V115.112C271.91 113.99 273.015 113.361 274.392 113.361C277.095 113.361 278.88 115.333 278.88 118.257C278.88 121.181 277.129 123.17 274.375 123.17C272.998 123.17 271.91 122.558 271.247 121.453ZM282.134 118.257C282.134 120.11 283.12 121.504 284.922 121.504C286.724 121.504 287.761 120.059 287.761 118.257C287.761 116.489 286.724 115.01 284.922 115.027C283.12 115.027 282.134 116.438 282.134 118.257ZM287.744 115.078V113.531H289.682V123H287.744V121.419C287.081 122.541 285.976 123.17 284.599 123.17C281.896 123.17 280.111 121.198 280.111 118.274C280.111 115.35 281.862 113.361 284.616 113.361C285.993 113.361 287.098 113.973 287.744 115.078ZM294.041 117.968V123H292.103V113.531H294.041V114.959C294.517 113.973 295.265 113.361 296.251 113.361C296.625 113.361 296.897 113.463 297.016 113.599V115.673C296.812 115.52 296.489 115.384 296.013 115.384C294.908 115.384 294.041 116.047 294.041 117.968ZM298.908 120.569V115.095H297.718V113.531H298.908V111.202H300.846V113.531H303.175V115.095H300.846V120.331C300.846 121.13 301.135 121.47 301.934 121.47C302.342 121.47 302.818 121.368 303.192 121.164V122.796C302.699 123.051 302.138 123.17 301.492 123.17C299.792 123.17 298.908 122.303 298.908 120.569ZM304.771 123V113.531H306.709V114.976C307.304 113.922 308.358 113.361 309.633 113.361C311.605 113.361 313.203 114.738 313.203 117.356V123H311.265V117.662C311.265 115.945 310.364 115.044 308.987 115.044C307.61 115.044 306.709 115.945 306.709 117.662V123H304.771ZM319.701 121.521C320.857 121.521 321.826 120.943 322.064 119.753H324.104C323.645 121.81 322.013 123.17 319.701 123.17C317.015 123.17 315.026 121.147 315.026 118.257C315.026 115.35 317.015 113.361 319.803 113.361C322.387 113.361 324.223 115.214 324.223 117.951C324.223 118.206 324.189 118.461 324.155 118.767H317.015C317.185 120.501 318.256 121.521 319.701 121.521ZM319.701 115.01C318.324 115.01 317.321 115.894 317.066 117.458H322.234C322.166 115.945 321.044 115.01 319.701 115.01ZM327.927 117.968V123H325.989V113.531H327.927V114.959C328.403 113.973 329.151 113.361 330.137 113.361C330.511 113.361 330.783 113.463 330.902 113.599V115.673C330.698 115.52 330.375 115.384 329.899 115.384C328.794 115.384 327.927 116.047 327.927 117.968Z" fill="#2C3A42"/>
<path d="M185.996 104V95.289H177.595V104H172.325V82.238H177.595V90.639H185.996V82.238H191.266V104H185.996ZM202.79 99.939C204.03 99.939 205.177 99.381 205.487 97.893H211.067C210.168 101.954 207.099 104.31 202.759 104.31C197.892 104.31 194.048 100.497 194.048 95.32C194.048 90.174 197.892 86.423 202.852 86.423C207.533 86.423 211.315 89.523 211.315 95.134C211.315 95.661 211.284 96.219 211.191 96.808H199.473C199.876 98.73 201.147 99.939 202.79 99.939ZM202.79 90.794C201.24 90.794 200.031 91.848 199.535 93.584H205.921C205.611 91.755 204.185 90.794 202.79 90.794ZM218.289 95.382C218.289 98.017 219.746 99.784 221.885 99.784C224.055 99.784 225.512 98.017 225.512 95.382C225.512 92.716 224.055 90.949 221.854 90.949C219.715 90.949 218.289 92.716 218.289 95.382ZM225.388 88.81V86.733H230.658V104H225.388V101.768C224.303 103.411 222.691 104.31 220.614 104.31C216.212 104.31 212.864 100.559 212.864 95.413C212.864 90.236 216.212 86.423 220.676 86.423C222.753 86.423 224.334 87.229 225.388 88.81ZM233.284 95.32C233.284 90.174 237.128 86.423 242.088 86.423C246.304 86.423 249.621 88.965 250.303 93.181H244.568C244.134 91.755 243.328 90.949 241.902 90.949C240.104 90.949 238.709 92.716 238.709 95.351C238.709 98.017 240.166 99.784 241.964 99.784C243.235 99.784 244.258 99.009 244.568 97.552H250.303C249.404 102.016 246.335 104.31 241.995 104.31C237.128 104.31 233.284 100.497 233.284 95.32ZM257.131 95.382C257.131 98.017 258.588 99.784 260.727 99.784C262.897 99.784 264.354 98.017 264.354 95.382C264.354 92.716 262.897 90.949 260.696 90.949C258.557 90.949 257.131 92.716 257.131 95.382ZM264.23 88.81V86.733H269.5V104H264.23V101.768C263.145 103.411 261.533 104.31 259.456 104.31C255.054 104.31 251.706 100.559 251.706 95.413C251.706 90.236 255.054 86.423 259.518 86.423C261.595 86.423 263.176 87.229 264.23 88.81ZM275.009 104.31C273.397 104.31 272.126 103.039 272.126 101.427C272.126 99.784 273.397 98.513 275.009 98.513C276.652 98.513 277.923 99.784 277.923 101.427C277.923 103.039 276.652 104.31 275.009 104.31ZM284.287 95.382C284.287 98.017 285.744 99.784 287.883 99.784C290.053 99.784 291.51 98.017 291.51 95.382C291.51 92.716 290.053 90.949 287.852 90.949C285.713 90.949 284.287 92.716 284.287 95.382ZM291.386 88.81V80.347H296.656V104H291.386V101.768C290.301 103.411 288.689 104.31 286.612 104.31C282.21 104.31 278.862 100.559 278.862 95.413C278.862 90.236 282.21 86.423 286.674 86.423C288.751 86.423 290.332 87.229 291.386 88.81ZM300.367 104V80.347H305.637V104H300.367ZM305.761 95.227L310.969 86.733H317.014L311.496 94.917L317.231 104H311.093L305.761 95.227Z" fill="#2C3A42"/>
<path d="M180.384 123V117.73H174.502V123H172.564V111.066H174.502V116.047H180.384V111.066H182.322V123H180.384ZM189 121.521C190.156 121.521 191.125 120.943 191.363 119.753H193.403C192.944 121.81 191.312 123.17 189 123.17C186.314 123.17 184.325 121.147 184.325 118.257C184.325 115.35 186.314 113.361 189.102 113.361C191.686 113.361 193.522 115.214 193.522 117.951C193.522 118.206 193.488 118.461 193.454 118.767H186.314C186.484 120.501 187.555 121.521 189 121.521ZM189 115.01C187.623 115.01 186.62 115.894 186.365 117.458H191.533C191.465 115.945 190.343 115.01 189 115.01ZM196.716 118.257C196.716 120.11 197.702 121.504 199.504 121.504C201.306 121.504 202.343 120.059 202.343 118.257C202.343 116.489 201.306 115.01 199.504 115.027C197.702 115.027 196.716 116.438 196.716 118.257ZM202.326 115.078V113.531H204.264V123H202.326V121.419C201.663 122.541 200.558 123.17 199.181 123.17C196.478 123.17 194.693 121.198 194.693 118.274C194.693 115.35 196.444 113.361 199.198 113.361C200.575 113.361 201.68 113.973 202.326 115.078ZM206.685 123V110.029H208.64V123H206.685ZM211.315 120.569V115.095H210.125V113.531H211.315V111.202H213.253V113.531H215.582V115.095H213.253V120.331C213.253 121.13 213.542 121.47 214.341 121.47C214.749 121.47 215.225 121.368 215.599 121.164V122.796C215.106 123.051 214.545 123.17 213.899 123.17C212.199 123.17 211.315 122.303 211.315 120.569ZM217.178 123V110.029H219.116V114.976C219.694 113.922 220.748 113.361 221.989 113.361C223.927 113.361 225.508 114.738 225.508 117.356V123H223.57V117.662C223.57 115.945 222.703 115.044 221.343 115.044C220 115.044 219.116 115.945 219.116 117.662V123H217.178ZM227.333 118.308C227.333 115.452 229.22 113.361 232.042 113.361C234.252 113.361 235.935 114.687 236.275 116.914H234.184C233.963 115.741 233.13 115.061 231.974 115.061C230.427 115.061 229.356 116.268 229.356 118.308C229.356 120.365 230.427 121.47 231.94 121.47C233.011 121.47 233.98 120.756 234.184 119.617H236.275C235.816 121.725 234.201 123.17 231.906 123.17C229.22 123.17 227.333 121.181 227.333 118.308ZM239.392 118.257C239.392 120.11 240.378 121.504 242.18 121.504C243.982 121.504 245.019 120.059 245.019 118.257C245.019 116.489 243.982 115.01 242.18 115.027C240.378 115.027 239.392 116.438 239.392 118.257ZM245.002 115.078V113.531H246.94V123H245.002V121.419C244.339 122.541 243.234 123.17 241.857 123.17C239.154 123.17 237.369 121.198 237.369 118.274C237.369 115.35 239.12 113.361 241.874 113.361C243.251 113.361 244.356 113.973 245.002 115.078ZM251.299 117.968V123H249.361V113.531H251.299V114.959C251.775 113.973 252.523 113.361 253.509 113.361C253.883 113.361 254.155 113.463 254.274 113.599V115.673C254.07 115.52 253.747 115.384 253.271 115.384C252.166 115.384 251.299 116.047 251.299 117.968ZM259.642 121.521C260.798 121.521 261.767 120.943 262.005 119.753H264.045C263.586 121.81 261.954 123.17 259.642 123.17C256.956 123.17 254.967 121.147 254.967 118.257C254.967 115.35 256.956 113.361 259.744 113.361C262.328 113.361 264.164 115.214 264.164 117.951C264.164 118.206 264.13 118.461 264.096 118.767H256.956C257.126 120.501 258.197 121.521 259.642 121.521ZM259.642 115.01C258.265 115.01 257.262 115.894 257.007 117.458H262.175C262.107 115.945 260.985 115.01 259.642 115.01ZM276.857 118.274C276.857 116.421 275.871 115.027 274.069 115.027C272.284 115.027 271.247 116.472 271.247 118.274C271.247 120.042 272.284 121.521 274.069 121.504C275.871 121.504 276.857 120.093 276.857 118.274ZM271.247 121.453V126.825H269.309V113.531H271.247V115.112C271.91 113.99 273.015 113.361 274.392 113.361C277.095 113.361 278.88 115.333 278.88 118.257C278.88 121.181 277.129 123.17 274.375 123.17C272.998 123.17 271.91 122.558 271.247 121.453ZM282.134 118.257C282.134 120.11 283.12 121.504 284.922 121.504C286.724 121.504 287.761 120.059 287.761 118.257C287.761 116.489 286.724 115.01 284.922 115.027C283.12 115.027 282.134 116.438 282.134 118.257ZM287.744 115.078V113.531H289.682V123H287.744V121.419C287.081 122.541 285.976 123.17 284.599 123.17C281.896 123.17 280.111 121.198 280.111 118.274C280.111 115.35 281.862 113.361 284.616 113.361C285.993 113.361 287.098 113.973 287.744 115.078ZM294.041 117.968V123H292.103V113.531H294.041V114.959C294.517 113.973 295.265 113.361 296.251 113.361C296.625 113.361 296.897 113.463 297.016 113.599V115.673C296.812 115.52 296.489 115.384 296.013 115.384C294.908 115.384 294.041 116.047 294.041 117.968ZM298.908 120.569V115.095H297.718V113.531H298.908V111.202H300.846V113.531H303.175V115.095H300.846V120.331C300.846 121.13 301.135 121.47 301.934 121.47C302.342 121.47 302.818 121.368 303.192 121.164V122.796C302.699 123.051 302.138 123.17 301.492 123.17C299.792 123.17 298.908 122.303 298.908 120.569ZM304.771 123V113.531H306.709V114.976C307.304 113.922 308.358 113.361 309.633 113.361C311.605 113.361 313.203 114.738 313.203 117.356V123H311.265V117.662C311.265 115.945 310.364 115.044 308.987 115.044C307.61 115.044 306.709 115.945 306.709 117.662V123H304.771ZM319.701 121.521C320.857 121.521 321.826 120.943 322.064 119.753H324.104C323.645 121.81 322.013 123.17 319.701 123.17C317.015 123.17 315.026 121.147 315.026 118.257C315.026 115.35 317.015 113.361 319.803 113.361C322.387 113.361 324.223 115.214 324.223 117.951C324.223 118.206 324.189 118.461 324.155 118.767H317.015C317.185 120.501 318.256 121.521 319.701 121.521ZM319.701 115.01C318.324 115.01 317.321 115.894 317.066 117.458H322.234C322.166 115.945 321.044 115.01 319.701 115.01ZM327.927 117.968V123H325.989V113.531H327.927V114.959C328.403 113.973 329.151 113.361 330.137 113.361C330.511 113.361 330.783 113.463 330.902 113.599V115.673C330.698 115.52 330.375 115.384 329.899 115.384C328.794 115.384 327.927 116.047 327.927 117.968Z" fill="#2C3A42"/>
<path d="M76 62C76 57.5817 79.5817 54 84 54H106C110.418 54 114 57.5817 114 62V113C114 117.418 110.418 121 106 121H84C79.5817 121 76 117.418 76 113V62Z" fill="#DF2020"/>
<path d="M37 91C37 86.5817 40.5817 83 45 83H56C60.4183 83 64 86.5817 64 91V113C64 117.418 60.4183 121 56 121H45C40.5817 121 37 117.418 37 113V91Z" fill="#DF2020" fill-opacity="0.9"/>
<path d="M76 121H114V153C114 157.418 110.418 161 106 161H84C79.5817 161 76 157.418 76 153V121Z" fill="#F39292" fill-opacity="0.8"/>
<path d="M145 83C149.418 83 153 86.5817 153 91L153 113C153 117.418 149.418 121 145 121L94 121C89.5817 121 86 117.418 86 113L86 91C86 86.5817 89.5817 83 94 83L145 83Z" fill="#F39292" fill-opacity="0.8"/>
<path d="M76 91C76 86.5817 79.5817 83 84 83H114V113C114 117.418 110.418 121 106 121H76V91Z" fill="#F36061"/>
</svg>
