<svg width="1440" height="1308" viewBox="0 0 1440 1308" fill="none" xmlns="http://www.w3.org/2000/svg">
<g clip-path="url(#clip0_92_166)">
<rect width="1440" height="1308" fill="white"/>
<rect y="430" width="1440" height="992" fill="url(#paint0_linear_92_166)"/>
<path d="M996.258 1352.1C967.236 1381.12 920.192 1381.13 891.181 1352.12L746.728 1207.67C717.719 1178.66 717.726 1131.61 746.748 1102.59L1081.74 767.596C1110.76 738.577 1157.81 738.568 1186.82 767.577L1331.27 912.03C1360.28 941.041 1360.27 988.087 1331.25 1017.11L996.258 1352.1Z" fill="#DF2020"/>
<path d="M1442.6 1417.32C1413.59 1446.33 1366.62 1446.4 1337.69 1417.47L1265.66 1345.44C1236.73 1316.51 1236.8 1269.54 1265.81 1240.53L1410.26 1096.08C1439.27 1067.07 1486.24 1067 1515.17 1095.93L1587.2 1167.96C1616.13 1196.89 1616.06 1243.86 1587.05 1272.87L1442.6 1417.32Z" fill="#DF2020" fill-opacity="0.9"/>
<path d="M1383.8 964.558L1134.29 715.048L1343.93 505.41C1372.87 476.466 1419.86 476.52 1448.87 505.528L1593.32 649.982C1622.33 678.992 1622.38 725.977 1593.44 754.92L1383.8 964.558Z" fill="#F39292" fill-opacity="0.8"/>
<path d="M681.548 761.327C652.529 732.308 652.518 685.262 681.529 656.251L825.982 511.798C854.991 482.789 902.039 482.798 931.058 511.817L1266.05 846.812C1295.07 875.833 1295.08 922.879 1266.07 951.888L1121.62 1096.34C1092.61 1125.35 1045.56 1125.34 1016.54 1096.32L681.548 761.327Z" fill="#F39292" fill-opacity="0.8"/>
<path d="M1186.82 1161.54C1157.81 1190.55 1110.77 1190.55 1081.76 1161.54L884.78 964.558L1081.76 767.577C1110.77 738.568 1157.81 738.568 1186.82 767.577L1383.8 964.558L1186.82 1161.54Z" fill="#F36061"/>
<rect y="43" width="1440" height="106" fill="white"/>
<rect y="106" width="1440" height="324" fill="url(#paint1_linear_92_166)" fill-opacity="0.08"/>
</g>
<defs>
<linearGradient id="paint0_linear_92_166" x1="720" y1="430" x2="720" y2="1422" gradientUnits="userSpaceOnUse">
<stop stop-color="#FDF6F6"/>
<stop offset="1" stop-color="#E85F5F" stop-opacity="0.5"/>
</linearGradient>
<linearGradient id="paint1_linear_92_166" x1="720" y1="106" x2="720" y2="430" gradientUnits="userSpaceOnUse">
<stop stop-color="white"/>
<stop offset="0.62" stop-color="#E98C8D"/>
</linearGradient>
<clipPath id="clip0_92_166">
<rect width="1440" height="1308" fill="white"/>
</clipPath>
</defs>
</svg>
