<svg width="393" height="852" viewBox="0 0 393 852" fill="none" xmlns="http://www.w3.org/2000/svg">
<g clip-path="url(#clip0_92_191)">
<rect width="393" height="852" fill="white"/>
<rect y="324" width="393" height="992" fill="url(#paint0_linear_92_191)"/>
<rect width="393" height="324" fill="url(#paint1_linear_92_191)" fill-opacity="0.08"/>
<path d="M261.774 888.187C250.728 899.232 232.824 899.236 221.783 888.194L166.806 833.217C155.765 822.177 155.768 804.272 166.813 793.226L294.308 665.732C305.352 654.687 323.258 654.684 334.299 665.724L389.276 720.701C400.317 731.742 400.313 749.648 389.268 760.692L261.774 888.187Z" fill="#DF2020"/>
<path d="M431.644 913.008C420.603 924.049 402.727 924.074 391.716 913.064L364.305 885.652C353.294 874.642 353.319 856.766 364.36 845.725L419.338 790.747C430.378 779.707 448.255 779.681 459.265 790.692L486.677 818.104C497.687 829.114 497.662 846.991 486.621 858.031L431.644 913.008Z" fill="#DF2020" fill-opacity="0.9"/>
<path d="M409.267 740.693L314.306 645.732L394.092 565.947C405.107 554.931 422.99 554.951 434.03 565.992L489.007 620.969C500.048 632.01 500.068 649.892 489.053 660.907L409.267 740.693Z" fill="#F39292" fill-opacity="0.8"/>
<path d="M141.999 663.346C130.955 652.301 130.951 634.396 141.992 623.355L196.969 568.378C208.009 557.337 225.915 557.341 236.96 568.385L364.454 695.88C375.5 706.925 375.502 724.83 364.462 735.871L309.485 790.848C298.444 801.889 280.539 801.886 269.494 790.84L141.999 663.346Z" fill="#F39292" fill-opacity="0.8"/>
<path d="M334.298 815.662C323.257 826.703 305.356 826.703 294.315 815.662L219.346 740.693L294.315 665.724C305.355 654.684 323.258 654.684 334.298 665.724L409.267 740.693L334.298 815.662Z" fill="#F36061"/>
</g>
<defs>
<linearGradient id="paint0_linear_92_191" x1="196.5" y1="324" x2="196.5" y2="1316" gradientUnits="userSpaceOnUse">
<stop stop-color="#FDF6F6"/>
<stop offset="1" stop-color="#E85F5F" stop-opacity="0.5"/>
</linearGradient>
<linearGradient id="paint1_linear_92_191" x1="196.5" y1="0" x2="196.5" y2="324" gradientUnits="userSpaceOnUse">
<stop stop-color="white"/>
<stop offset="0.62" stop-color="#E98C8D"/>
</linearGradient>
<clipPath id="clip0_92_191">
<rect width="393" height="852" fill="white"/>
</clipPath>
</defs>
</svg>
